<?xml version="1.0" encoding="UTF-8" standalone="no"?>
<!-- Created with Inkscape (http://www.inkscape.org/) -->

<svg
   xmlns:dc="http://purl.org/dc/elements/1.1/"
   xmlns:cc="http://creativecommons.org/ns#"
   xmlns:rdf="http://www.w3.org/1999/02/22-rdf-syntax-ns#"
   xmlns:svg="http://www.w3.org/2000/svg"
   xmlns="http://www.w3.org/2000/svg"
   xmlns:sodipodi="http://sodipodi.sourceforge.net/DTD/sodipodi-0.dtd"
   xmlns:inkscape="http://www.inkscape.org/namespaces/inkscape"
   width="128"
   height="128"
   id="svg2"
   version="1.1"
   inkscape:version="0.48.5 r10040"
   inkscape:export-filename="C:\Users\Tim\Dropbox\bing.png"
   inkscape:export-xdpi="90"
   inkscape:export-ydpi="90"
   sodipodi:docname="New document 1">
  <defs
     id="defs4" />
  <sodipodi:namedview
     id="base"
     pagecolor="#ffffff"
     bordercolor="#666666"
     borderopacity="1.0"
     inkscape:pageopacity="0.0"
     inkscape:pageshadow="2"
     inkscape:zoom="2.8"
     inkscape:cx="118.56422"
     inkscape:cy="12.403977"
     inkscape:document-units="px"
     inkscape:current-layer="layer1"
     showgrid="false"
     fit-margin-top="0"
     fit-margin-left="0"
     fit-margin-right="0"
     fit-margin-bottom="0"
     inkscape:window-width="1920"
     inkscape:window-height="1017"
     inkscape:window-x="-8"
     inkscape:window-y="-8"
     inkscape:window-maximized="1" />
  <metadata
     id="metadata7">
    <rdf:RDF>
      <cc:Work
         rdf:about="">
        <dc:format>image/svg+xml</dc:format>
        <dc:type
           rdf:resource="http://purl.org/dc/dcmitype/StillImage" />
        <dc:title></dc:title>
      </cc:Work>
    </rdf:RDF>
  </metadata>
  <g
     inkscape:label="Layer 1"
     inkscape:groupmode="layer"
     id="layer1"
     transform="translate(-221.57143,-379.14789)">
    <path
       style="opacity:0;fill:#505050;fill-opacity:1;fill-rule:nonzero;stroke:none"
       d="M 307.59325,591.94797 282.158,574.2082 l -0.0112,-96.66892 -0.0112,-96.6689 2.41072,0.68761 c 1.32589,0.37818 12.9375,3.71961 25.80357,7.4254 l 23.39285,6.73778 0.0902,65.33631 0.0902,65.33631 -25.17369,22.83577 c -13.84553,12.55968 -25.17631,22.9542 -25.17952,23.09894 -0.003,0.14473 1.48077,-0.53259 3.29773,-1.50516 50.40324,-26.97953 120.79887,-64.99812 120.78465,-65.23221 -0.0104,-0.17133 -7.73204,-3.73578 -17.15919,-7.92101 L 373.35284,490.06061 362.167,465.24135 c -6.15221,-13.6506 -11.09609,-24.90902 -10.9864,-25.01871 0.10969,-0.10969 26.04353,7.83099 57.63075,17.64595 l 57.43131,17.84538 0.0915,27.6793 0.0915,27.67931 -66.21721,39.33567 c -36.41947,21.63461 -66.43384,39.32302 -66.69861,39.30758 -0.26477,-0.0154 -11.92726,-8.01098 -25.91664,-17.76786 l 0,0 z"
       id="path3779"
       inkscape:connector-curvature="0" />
    <path
       style="opacity:0;fill:#505050;fill-opacity:1;fill-rule:nonzero;stroke:none"
       d="M 307.59325,591.94797 282.158,574.2082 l -0.0112,-96.66892 -0.0112,-96.6689 2.41072,0.68761 c 1.32589,0.37818 12.9375,3.71961 25.80357,7.4254 l 23.39285,6.73778 0.0902,65.33631 0.0902,65.33631 -25.17369,22.83577 c -13.84553,12.55968 -25.17631,22.9542 -25.17952,23.09894 -0.003,0.14473 1.48077,-0.53259 3.29773,-1.50516 50.40324,-26.97953 120.79887,-64.99812 120.78465,-65.23221 -0.0104,-0.17133 -7.73204,-3.73578 -17.15919,-7.92101 L 373.35284,490.06061 362.167,465.24135 c -6.15221,-13.6506 -11.09609,-24.90902 -10.9864,-25.01871 0.10969,-0.10969 26.04353,7.83099 57.63075,17.64595 l 57.43131,17.84538 0.0915,27.6793 0.0915,27.67931 -66.21721,39.33567 c -36.41947,21.63461 -66.43384,39.32302 -66.69861,39.30758 -0.26477,-0.0154 -11.92726,-8.01098 -25.91664,-17.76786 l 0,0 z"
       id="path3781"
       inkscape:connector-curvature="0" />
    <rect
       style="fill:#ffb900;fill-opacity:1;fill-rule:nonzero;stroke:none"
       id="rect3787"
       width="128"
       height="128"
       x="221.57143"
       y="379.14789" />
    <path
       style="fill:#505050;fill-opacity:1;stroke:none"
       d="m 244.78572,387.09539 0,93.11011 24.90954,17.35079 63.90584,-37.96558 0,-26.7992 -55.83172,-17.35079 10.99455,24.39417 16.66362,7.38696 -59.78288,32.12471 24.22238,-21.98911 0,-63.04689 z"
       id="path2998"
       inkscape:connector-curvature="0" />
  </g>
</svg>
