<?xml version="1.0" encoding="UTF-8" standalone="no"?>
<!-- Created with Inkscape (http://www.inkscape.org/) -->

<svg
   xmlns:dc="http://purl.org/dc/elements/1.1/"
   xmlns:cc="http://creativecommons.org/ns#"
   xmlns:rdf="http://www.w3.org/1999/02/22-rdf-syntax-ns#"
   xmlns:svg="http://www.w3.org/2000/svg"
   xmlns="http://www.w3.org/2000/svg"
   xmlns:xlink="http://www.w3.org/1999/xlink"
   xmlns:sodipodi="http://sodipodi.sourceforge.net/DTD/sodipodi-0.dtd"
   xmlns:inkscape="http://www.inkscape.org/namespaces/inkscape"
   width="128"
   height="128"
   id="svg2"
   version="1.1"
   inkscape:version="0.48.5 r10040"
   inkscape:export-filename="C:\Users\Tim\Dropbox\bing.png"
   inkscape:export-xdpi="90"
   inkscape:export-ydpi="90"
   sodipodi:docname="wotrax.svg">
  <defs
     id="defs4">
    <linearGradient
       id="linearGradient3799">
      <stop
         style="stop-color:#27b9e4;stop-opacity:0.2857143;"
         offset="0"
         id="stop3801" />
      <stop
         style="stop-color:#070000;stop-opacity:0;"
         offset="1"
         id="stop3803" />
    </linearGradient>
    <linearGradient
       inkscape:collect="always"
       xlink:href="#linearGradient3799"
       id="linearGradient3805"
       x1="21.428572"
       y1="96.571426"
       x2="99.642853"
       y2="18.714285"
       gradientUnits="userSpaceOnUse"
       gradientTransform="matrix(0.84728134,0,0,0.896,230.34683,385.09988)" />
    <filter
       style="color-interpolation-filters:sRGB;"
       inkscape:label="Drop Shadow"
       id="filter3867">
      <feFlood
         flood-opacity="0.5"
         flood-color="rgb(0,0,0)"
         result="flood"
         id="feFlood3869" />
      <feComposite
         in="flood"
         in2="SourceGraphic"
         operator="in"
         result="composite1"
         id="feComposite3871" />
      <feGaussianBlur
         in="composite"
         stdDeviation="2"
         result="blur"
         id="feGaussianBlur3873" />
      <feOffset
         dx="0.5"
         dy="0.5"
         result="offset"
         id="feOffset3875" />
      <feComposite
         in="SourceGraphic"
         in2="offset"
         operator="over"
         result="composite2"
         id="feComposite3877" />
    </filter>
    <filter
       style="color-interpolation-filters:sRGB;"
       inkscape:label="Drop Shadow"
       id="filter3879">
      <feFlood
         flood-opacity="0.5"
         flood-color="rgb(0,0,0)"
         result="flood"
         id="feFlood3881" />
      <feComposite
         in="flood"
         in2="SourceGraphic"
         operator="in"
         result="composite1"
         id="feComposite3883" />
      <feGaussianBlur
         in="composite"
         stdDeviation="2"
         result="blur"
         id="feGaussianBlur3885" />
      <feOffset
         dx="0.5"
         dy="0.5"
         result="offset"
         id="feOffset3887" />
      <feComposite
         in="SourceGraphic"
         in2="offset"
         operator="over"
         result="composite2"
         id="feComposite3889" />
    </filter>
  </defs>
  <sodipodi:namedview
     id="base"
     pagecolor="#ffffff"
     bordercolor="#666666"
     borderopacity="1.0"
     inkscape:pageopacity="0.0"
     inkscape:pageshadow="2"
     inkscape:zoom="2.8"
     inkscape:cx="69.80799"
     inkscape:cy="70.150929"
     inkscape:document-units="px"
     inkscape:current-layer="layer1"
     showgrid="false"
     fit-margin-top="0"
     fit-margin-left="0"
     fit-margin-right="0"
     fit-margin-bottom="0"
     inkscape:window-width="1920"
     inkscape:window-height="1017"
     inkscape:window-x="-8"
     inkscape:window-y="-8"
     inkscape:window-maximized="1" />
  <metadata
     id="metadata7">
    <rdf:RDF>
      <cc:Work
         rdf:about="">
        <dc:format>image/svg+xml</dc:format>
        <dc:type
           rdf:resource="http://purl.org/dc/dcmitype/StillImage" />
        <dc:title />
      </cc:Work>
    </rdf:RDF>
  </metadata>
  <g
     inkscape:label="Layer 1"
     inkscape:groupmode="layer"
     id="layer1"
     transform="translate(-221.57143,-379.14789)">
    <rect
       style="fill:url(#linearGradient3805);fill-opacity:1;fill-rule:nonzero;stroke:#000000;stroke-opacity:1;stroke-width:3;stroke-miterlimit:4;stroke-dasharray:none;stroke-linejoin:miter;stroke-linecap:butt"
       id="rect3797"
       width="128"
       height="128"
       x="221.57143"
       y="379.14789" />
    <path
       style="opacity:0;fill:#505050;fill-opacity:1;fill-rule:nonzero;stroke:none"
       d="m 299.8174,599.77775 -17.66624,-9.92238 -0.008,-54.06977 -0.008,-54.06976 1.67438,0.3846 c 0.92091,0.21153 8.98584,2.08049 17.92206,4.15325 l 16.24767,3.76863 0.0626,36.54452 0.0627,36.54453 -17.48457,12.77271 c -9.61651,7.025 -17.48639,12.83896 -17.48862,12.91992 -0.002,0.081 1.02848,-0.29789 2.29047,-0.84188 35.00793,-15.09044 83.90173,-36.35536 83.89185,-36.48629 -0.007,-0.0958 -5.37034,-2.08954 -11.91804,-4.43046 l -11.9049,-4.25622 -7.76921,-13.88214 c -4.27306,-7.63519 -7.70687,-13.93235 -7.63068,-13.9937 0.0762,-0.0614 18.08872,4.3801 40.02785,9.86989 l 39.88934,9.98145 0.0635,15.48185 0.0636,15.48185 -45.99164,22.0016 c -25.29541,12.10087 -46.14211,21.99452 -46.32601,21.98588 -0.1839,-0.009 -8.28416,-4.48077 -18.00059,-9.93808 l 0,0 z"
       id="path3779"
       inkscape:connector-curvature="0" />
    <path
       style="opacity:0;fill:#505050;fill-opacity:1;fill-rule:nonzero;stroke:none"
       d="M 307.59325,591.94797 282.158,574.2082 l -0.0112,-96.66892 -0.0112,-96.6689 2.41072,0.68761 c 1.32589,0.37818 12.9375,3.71961 25.80357,7.4254 l 23.39285,6.73778 0.0902,65.33631 0.0902,65.33631 -25.17369,22.83577 c -13.84553,12.55968 -25.17631,22.9542 -25.17952,23.09894 -0.003,0.14473 1.48077,-0.53259 3.29773,-1.50516 50.40324,-26.97953 120.79887,-64.99812 120.78465,-65.23221 -0.0104,-0.17133 -7.73204,-3.73578 -17.15919,-7.92101 L 373.35284,490.06061 362.167,465.24135 c -6.15221,-13.6506 -11.09609,-24.90902 -10.9864,-25.01871 0.10969,-0.10969 26.04353,7.83099 57.63075,17.64595 l 57.43131,17.84538 0.0915,27.6793 0.0915,27.67931 -66.21721,39.33567 c -36.41947,21.63461 -66.43384,39.32302 -66.69861,39.30758 -0.26477,-0.0154 -11.92726,-8.01098 -25.91664,-17.76786 l 0,0 z"
       id="path3781"
       inkscape:connector-curvature="0" />
    <text
       xml:space="preserve"
       style="font-size:69.95936584px;font-style:normal;font-variant:normal;font-weight:normal;font-stretch:normal;line-height:125%;letter-spacing:0px;word-spacing:0px;fill:#000000;fill-opacity:1;stroke:none;filter:url(#filter3867);font-family:Candara;-inkscape-font-specification:Candara"
       x="232.35634"
       y="446.66101"
       id="text3789"
       sodipodi:linespacing="125%"
       transform="matrix(0.76630235,0,0,0.76630235,64.509189,100.25827)"><tspan
         sodipodi:role="line"
         id="tspan3791"
         x="232.35634"
         y="446.66101"
         style="font-style:normal;font-variant:normal;font-weight:bold;font-stretch:normal;baseline-shift:baseline;font-family:Tahoma;-inkscape-font-specification:Tahoma Bold">wo</tspan></text>
    <text
       xml:space="preserve"
       style="font-size:40px;font-style:normal;font-weight:normal;line-height:125%;letter-spacing:0px;word-spacing:0px;fill:#000000;fill-opacity:1;stroke:none;filter:url(#filter3879);font-family:Sans"
       x="235.85716"
       y="479.29074"
       id="text3793"
       sodipodi:linespacing="125%"><tspan
         sodipodi:role="line"
         id="tspan3795"
         x="235.85716"
         y="479.29074"
         style="font-style:normal;font-variant:normal;font-weight:normal;font-stretch:normal;font-family:Tahoma;-inkscape-font-specification:Tahoma">TRAX</tspan></text>
  </g>
</svg>
